<?xml version="1.0" standalone="no"?>
<!DOCTYPE svg PUBLIC "-//W3C//DTD SVG 20010904//EN"
 "http://www.w3.org/TR/2001/REC-SVG-20010904/DTD/svg10.dtd">
<svg version="1.0" xmlns="http://www.w3.org/2000/svg"
 width="2000.000000pt" height="2000.000000pt" viewBox="0 0 2000.000000 2000.000000"
 preserveAspectRatio="xMidYMid meet">
<metadata>
Created by potrace 1.11, written by Peter Selinger 2001-2013
</metadata>
<g transform="translate(0.000000,2000.000000) scale(0.100000,-0.100000)"
fill="#000000" stroke="none">
<path d="M7778 19784 c-12 -12 -14 -24 -7 -55 10 -45 15 -117 7 -124 -2 -3
-18 -8 -35 -11 -26 -5 -35 0 -65 32 l-36 37 -33 -24 c-37 -26 -101 -89 -167
-165 l-43 -49 -17 25 c-49 70 -58 71 -164 20 -58 -28 -86 -31 -72 -8 10 16
-68 -1 -88 -19 -21 -19 -23 -45 -6 -73 17 -27 1 -52 -39 -64 -31 -8 -31 -8
-38 -103 -8 -102 -24 -133 -72 -133 -13 0 -23 -4 -23 -10 0 -5 -12 -13 -27
-16 -40 -10 -54 -24 -48 -48 4 -12 3 -16 -2 -11 -27 34 -77 56 -124 57 -45 0
-54 -4 -81 -34 -16 -18 -34 -43 -39 -55 -8 -23 -20 -27 -71 -23 -15 1 -40 -9
-57 -21 -33 -24 -95 -139 -111 -207 -15 -60 -38 -79 -93 -80 -33 -1 -58 -9
-88 -29 -105 -70 -125 -83 -139 -89 -28 -13 -80 -55 -80 -65 0 -19 -44 -49
-83 -55 -22 -4 -42 -15 -48 -26 -11 -21 -4 -38 16 -38 11 0 13 -14 10 -60 -5
-70 -9 -80 -36 -80 -12 0 -19 -7 -19 -18 0 -10 -11 -29 -25 -42 -14 -13 -25
-27 -25 -32 0 -15 80 -9 86 7 8 21 44 0 44 -25 0 -11 5 -20 10 -20 6 0 10 -7
10 -15 0 -11 -12 -15 -50 -15 -28 0 -50 -5 -50 -10 0 -6 -8 -10 -17 -8 -16 3
-18 -5 -16 -57 1 -38 -3 -65 -11 -75 -8 -8 -17 -30 -21 -47 -3 -18 -10 -32
-13 -32 -23 4 -32 -5 -42 -40 -5 -21 -20 -51 -31 -66 -18 -22 -27 -26 -53 -21
-30 6 -33 4 -45 -31 -7 -21 -26 -51 -41 -68 -26 -29 -50 -110 -50 -174 0 -14
-6 -37 -13 -51 -31 -59 -67 -294 -67 -435 0 -26 -9 -112 -19 -189 -36 -266
-41 -311 -41 -396 0 -47 5 -115 10 -151 5 -37 14 -149 20 -250 13 -243 37
-466 60 -559 12 -46 21 -131 24 -220 3 -80 9 -170 12 -202 6 -55 6 -57 -30
-94 -33 -34 -36 -42 -36 -93 0 -31 -7 -94 -15 -141 -23 -122 -4 -316 45 -470
6 -19 13 -69 16 -110 10 -151 25 -202 103 -358 9 -18 26 -43 39 -54 12 -12 22
-27 22 -33 0 -7 13 -26 30 -43 44 -46 56 -86 63 -202 3 -58 17 -153 31 -212
23 -101 24 -111 11 -160 -33 -121 -38 -155 -32 -256 4 -75 12 -115 26 -146 12
-23 21 -53 21 -66 0 -38 86 -171 155 -239 82 -81 112 -138 96 -183 -6 -18 -22
-44 -36 -58 -26 -27 -115 -201 -135 -265 -7 -22 -21 -58 -30 -80 -10 -22 -26
-76 -35 -120 -9 -43 -20 -84 -24 -90 -18 -23 -56 -216 -75 -375 -2 -19 -11
-71 -19 -115 -9 -44 -25 -140 -36 -214 -19 -125 -23 -137 -53 -168 -17 -18
-38 -33 -47 -33 -8 0 -28 -11 -45 -24 -17 -13 -57 -35 -89 -50 -32 -14 -70
-37 -85 -51 -15 -14 -48 -32 -74 -41 -30 -10 -56 -27 -69 -46 -12 -17 -36 -36
-53 -43 -17 -7 -40 -23 -50 -34 -11 -12 -25 -21 -33 -21 -7 0 -53 -20 -101
-44 -48 -24 -116 -53 -151 -65 -36 -12 -76 -30 -90 -40 -14 -10 -58 -28 -97
-39 -48 -15 -73 -28 -76 -39 -3 -12 -50 -37 -129 -72 -68 -29 -164 -73 -214
-96 -49 -23 -115 -50 -145 -60 -30 -9 -114 -45 -186 -80 -72 -35 -156 -68
-186 -74 -31 -5 -72 -21 -92 -34 -20 -14 -59 -28 -87 -32 -59 -8 -133 -33
-170 -58 -14 -9 -59 -28 -99 -42 -41 -14 -83 -34 -94 -44 -12 -10 -41 -27 -66
-38 -25 -11 -62 -32 -84 -46 -21 -15 -54 -29 -75 -33 -20 -3 -47 -14 -61 -23
-33 -21 -142 -70 -157 -71 -7 0 -36 -13 -65 -28 -29 -16 -70 -32 -91 -35 -26
-4 -53 -20 -83 -47 -24 -22 -48 -40 -54 -40 -6 0 -26 -11 -43 -24 -18 -13 -54
-31 -82 -41 -27 -9 -95 -38 -150 -65 -55 -26 -117 -51 -137 -54 -21 -4 -43
-15 -50 -25 -18 -24 -30 -30 -95 -47 -39 -10 -66 -23 -83 -43 -16 -18 -49 -36
-95 -51 -38 -12 -86 -32 -105 -45 -19 -12 -60 -30 -90 -40 -30 -10 -64 -22
-75 -28 -178 -94 -190 -99 -255 -102 -99 -4 -150 -21 -161 -54 -5 -15 -23 -35
-40 -45 -46 -27 -149 -196 -149 -244 0 -15 -7 -38 -17 -51 -33 -48 -83 -362
-86 -546 -2 -85 -5 -95 -46 -177 -24 -49 -50 -93 -57 -99 -8 -6 -14 -17 -14
-24 0 -7 -7 -18 -16 -25 -8 -8 -28 -40 -45 -73 -16 -33 -44 -81 -63 -106 -36
-50 -105 -191 -126 -256 -7 -22 -18 -47 -25 -55 -17 -20 -32 -74 -40 -140 -3
-30 -17 -101 -30 -156 -14 -56 -32 -162 -40 -235 -19 -168 -21 -176 -50 -211
-13 -16 -29 -45 -35 -66 -7 -25 -10 -989 -10 -2989 l0 -2953 10000 0 10000 0
0 634 0 635 -42 4 -43 4 43 1 42 2 0 40 c0 33 -3 40 -20 40 -17 0 -20 7 -20
39 0 33 4 40 23 44 13 3 6 5 -17 6 -23 0 -56 12 -82 29 -43 26 -44 28 -44 80
l0 52 -40 0 c-25 0 -40 -5 -40 -12 0 -7 -16 -23 -35 -36 l-35 -22 -25 22 c-14
12 -25 30 -25 40 0 25 -41 48 -102 57 -54 7 -98 25 -98 40 0 4 -18 14 -39 21
-22 7 -42 19 -45 26 -3 8 -17 14 -31 14 -31 0 -125 60 -125 80 0 8 20 28 44
43 54 34 52 57 -5 57 -45 0 -57 16 -66 90 -5 44 -9 50 -29 50 -13 0 -24 4 -24
9 0 4 -36 18 -80 31 -55 16 -80 28 -80 38 0 13 -3 13 -19 -2 -17 -15 -19 -15
-25 -1 -3 9 -3 27 0 41 6 22 3 24 -27 24 -57 0 -102 19 -147 60 -24 22 -48 40
-53 40 -5 0 -9 18 -9 40 0 33 -3 40 -20 40 -13 0 -20 -7 -20 -19 0 -23 -30
-37 -42 -19 -11 18 -10 56 2 63 5 3 10 17 10 31 0 20 -5 24 -32 24 -42 0 -107
23 -119 41 -13 21 -11 39 6 39 11 0 15 11 15 40 0 25 5 40 13 40 6 1 0 7 -15
16 -37 20 -62 68 -48 93 18 34 12 123 -10 151 -20 25 -20 25 -20 3 0 -38 -27
-26 -33 15 -4 20 -15 42 -25 49 -16 9 -22 7 -37 -13 -10 -13 -22 -24 -28 -24
-5 0 -15 -7 -22 -16 -8 -12 -20 -15 -37 -11 -30 8 -36 21 -49 97 -6 30 -12 69
-15 86 -3 18 -19 46 -35 63 -21 23 -27 39 -24 59 19 121 14 143 -26 121 -28
-14 -34 -4 -48 74 -10 57 -23 81 -86 152 -14 17 -38 45 -53 63 -15 18 -37 45
-50 59 -28 33 -25 45 16 58 38 11 41 31 7 47 -18 8 -28 8 -38 -1 -12 -9 -17
-3 -27 34 -11 41 -30 70 -30 47 0 -18 -32 -8 -40 12 -7 19 -21 100 -36 211 -3
22 -11 54 -18 70 -7 17 -14 79 -15 139 -2 60 -7 121 -12 134 -6 14 -12 109
-15 211 -6 210 -17 298 -44 356 -21 45 -60 174 -60 198 0 8 -11 24 -25 34 -21
15 -27 30 -32 75 -4 41 -13 64 -33 88 -30 35 -50 107 -50 179 0 54 -14 104
-41 142 -10 15 -24 51 -30 80 -13 60 -33 105 -49 111 -6 2 -17 32 -25 68 -21
92 -35 139 -57 189 -11 25 -24 70 -30 100 -16 93 -96 350 -124 403 -8 14 -14
32 -14 40 0 8 -11 36 -24 64 -41 82 -63 137 -70 179 -7 36 -22 69 -84 190 -25
47 -91 189 -120 257 -13 30 -22 80 -26 145 -4 54 -15 134 -26 178 -11 44 -26
107 -34 140 -8 33 -24 110 -36 170 -12 61 -34 146 -49 190 -15 44 -35 103 -44
130 -10 28 -31 93 -48 145 -17 52 -39 106 -49 120 -9 14 -36 66 -59 115 -23
50 -52 110 -64 134 -21 40 -135 183 -210 260 -34 36 -131 85 -187 96 -71 13
-90 49 -90 170 0 38 -7 132 -15 208 -8 76 -19 224 -25 330 -24 443 -31 547
-45 637 -25 162 -34 265 -51 565 -8 160 -24 358 -34 440 -11 83 -22 191 -26
240 -7 109 -39 297 -55 328 -32 62 -67 72 -126 36 -42 -26 -102 -19 -110 12
-7 25 -183 114 -256 128 -59 12 -270 45 -427 66 -78 11 -201 15 -475 14 -231
-1 -379 2 -395 9 -14 5 -38 22 -55 36 -32 29 -63 38 -169 56 -39 6 -95 23
-125 38 -54 25 -66 27 -281 33 -124 4 -499 7 -834 7 -586 -1 -610 0 -623 18
-14 20 -12 47 13 122 28 85 12 287 -29 367 -43 85 -57 207 -33 286 8 26 17
105 21 175 7 141 16 172 92 333 65 136 73 164 89 286 20 162 19 536 -2 606
-16 55 -70 119 -100 119 -8 0 -28 14 -46 30 -21 20 -41 30 -62 30 -17 0 -42 7
-55 16 -22 16 -23 22 -19 83 3 36 12 80 20 96 36 70 55 668 30 960 -7 83 -19
191 -27 240 -37 227 -45 291 -55 440 -6 88 -18 192 -27 230 -15 67 -61 203
-82 242 -66 127 -111 234 -111 263 0 33 -26 92 -95 215 -52 92 -65 119 -65
136 0 9 -11 28 -25 43 -14 15 -39 55 -57 89 -17 34 -35 65 -41 68 -13 9 -26
95 -16 111 17 26 9 73 -16 97 -14 13 -25 31 -25 40 0 9 -22 41 -50 71 -35 39
-52 68 -61 103 -6 27 -27 80 -45 118 -19 38 -34 72 -34 74 0 3 -16 25 -35 51
-19 25 -35 52 -35 59 0 20 -58 65 -92 72 -16 3 -37 17 -46 31 -9 13 -28 35
-41 48 -13 13 -19 24 -13 24 6 0 5 15 -3 44 -20 65 -33 86 -61 96 -14 6 -23
13 -21 17 10 17 -15 55 -42 64 -17 6 -33 19 -36 30 -11 34 -57 71 -119 96 -33
14 -78 37 -101 53 -50 34 -98 48 -199 56 -75 7 -79 8 -90 36 -8 21 -21 31 -49
39 -20 5 -42 7 -47 4 -12 -8 -51 13 -68 36 -18 26 -75 41 -145 40 -34 -1 -93
4 -130 11 -55 9 -72 17 -85 36 -18 28 -21 58 -9 85 13 29 -1 53 -44 72 -35 16
-45 17 -72 6 -18 -7 -61 -15 -97 -18 -36 -2 -78 -10 -95 -18 -50 -22 -117 -27
-185 -14 -70 13 -99 17 -145 18 -20 1 -26 4 -17 10 20 12 -111 21 -158 10 -36
-8 -127 -11 -275 -7 -105 3 -152 -9 -187 -48 -17 -19 -35 -34 -40 -34 -4 0
-23 22 -40 50 -44 66 -113 91 -150 54z m260 -132 c6 -9 12 -26 12 -38 0 -60
-31 -71 -68 -23 -21 26 -22 32 -10 59 10 23 17 28 33 24 11 -3 26 -13 33 -22z
m2363 -564 c1 -7 3 -31 4 -53 2 -22 6 -55 10 -72 6 -26 4 -34 -10 -39 -22 -9
-36 7 -46 53 -4 21 -11 50 -15 66 -4 16 -1 33 6 42 15 18 49 20 51 3z m-2076
-343 c22 -8 46 -15 53 -15 7 0 23 -12 35 -26 15 -17 36 -27 67 -31 25 -3 65
-16 90 -28 25 -12 55 -26 68 -30 13 -3 33 -16 45 -27 12 -11 46 -35 74 -54 42
-26 60 -32 86 -27 23 3 37 0 46 -11 7 -9 18 -16 22 -16 16 0 143 -81 165 -105
12 -13 32 -26 45 -30 13 -4 35 -18 49 -30 84 -78 110 -108 110 -125 0 -13 7
-20 18 -20 10 0 28 -7 40 -16 17 -12 22 -12 23 -2 1 7 5 -4 10 -25 6 -25 5
-45 -1 -58 -6 -11 -8 -24 -5 -29 11 -17 35 -11 43 11 8 20 9 20 25 4 14 -13
16 -27 11 -63 -4 -26 -7 -69 -8 -97 -1 -49 -2 -50 -30 -48 -23 2 -30 -3 -39
-27 -8 -22 -27 -36 -79 -60 -64 -30 -77 -32 -210 -36 -79 -3 -159 -9 -178 -14
-30 -8 -207 -14 -295 -10 -95 4 -285 -4 -285 -12 0 -13 -251 -4 -332 12 -66
13 -85 11 -197 -17 -14 -3 -26 -1 -31 7 -6 10 -14 9 -39 -3 -18 -9 -39 -13
-47 -10 -17 6 -53 -34 -54 -59 0 -15 -10 -18 -59 -18 -42 0 -60 4 -64 14 -3 8
-16 16 -29 18 -13 2 -27 13 -33 26 -5 12 -15 22 -21 22 -7 0 -15 17 -19 38 -7
40 -28 65 -63 76 -22 7 -27 17 -37 82 -5 34 -12 44 -40 57 l-34 16 0 78 c1 66
5 83 25 110 19 25 24 44 24 91 0 45 5 66 21 86 19 24 26 26 63 21 33 -5 45 -2
64 15 12 11 22 26 22 32 0 13 26 35 58 48 14 6 22 18 22 34 0 26 28 36 106 36
23 0 45 4 48 9 3 4 27 14 53 21 53 15 82 31 131 72 18 15 37 28 43 28 6 0 30
16 53 35 47 38 112 65 160 65 17 0 54 7 81 14 64 18 81 18 130 1z m2230 -45
c-3 -5 -10 -10 -16 -10 -5 0 -9 5 -9 10 0 6 7 10 16 10 8 0 12 -4 9 -10z
m-146 -896 c17 -4 22 -10 18 -24 -3 -12 0 -20 8 -20 7 0 15 -8 19 -17 15 -45
50 -85 69 -77 21 8 29 -24 15 -62 -14 -39 -23 -42 -37 -15 -7 13 -18 17 -36
14 -19 -4 -25 -1 -25 13 -1 18 -50 57 -123 96 -26 15 -32 24 -33 55 -1 21 0
41 3 45 4 7 69 3 122 -8z m238 -226 c-3 -8 -6 -5 -6 6 -1 11 2 17 5 13 3 -3 4
-12 1 -19z m-41 -32 c10 -8 16 -18 11 -22 -4 -4 6 -13 23 -20 33 -14 36 -27
17 -62 -13 -22 -13 -22 -37 18 -14 22 -31 40 -38 40 -24 0 -41 25 -30 43 11
21 28 22 54 3z m152 -273 c2 -21 -2 -32 -14 -37 -24 -9 -26 -3 -18 38 8 43 28
43 32 -1z m-1518 -111 c19 -8 57 -22 84 -32 26 -9 51 -22 55 -27 3 -6 17 -10
31 -9 22 1 25 -3 28 -39 3 -36 7 -42 42 -59 29 -14 40 -25 40 -42 0 -14 8 -25
20 -29 11 -3 32 -22 46 -41 15 -19 32 -34 40 -34 7 0 21 -11 30 -25 9 -14 25
-25 35 -25 14 0 20 -10 25 -50 5 -35 13 -54 25 -61 23 -12 25 -29 4 -29 -8 0
-20 -10 -26 -22 -7 -12 -32 -42 -57 -66 l-45 -45 6 -83 c4 -68 2 -84 -9 -84
-8 0 -14 -4 -14 -8 0 -5 -30 -14 -66 -21 -57 -10 -69 -10 -83 4 -10 8 -25 15
-34 15 -9 0 -26 9 -37 20 -11 11 -25 20 -31 20 -5 0 -8 4 -5 9 9 14 -23 22
-44 11 -31 -16 -262 -12 -303 5 -42 17 -139 20 -168 4 -36 -19 -133 -41 -182
-41 -51 0 -144 40 -140 60 3 13 -70 72 -89 72 -22 0 -42 -49 -27 -66 20 -25
-8 -42 -79 -49 -37 -4 -87 -16 -112 -28 -34 -16 -64 -21 -125 -21 -82 0 -202
11 -217 20 -4 3 -17 0 -28 -6 -16 -8 -25 -8 -35 0 -20 17 -122 39 -178 40 -38
0 -53 5 -68 23 -16 18 -20 20 -28 7 -8 -11 -14 -12 -33 -3 -51 26 -68 25 -103
-1 -18 -14 -41 -26 -50 -26 -25 0 -55 19 -55 35 0 8 -7 18 -17 23 -22 13 -33
99 -17 151 10 36 10 43 -7 62 -23 26 -25 49 -4 49 8 0 15 4 15 9 0 5 29 19 65
31 36 12 67 26 71 31 3 5 9 7 14 4 4 -3 13 2 20 10 7 8 27 15 44 15 25 0 34 6
44 30 9 19 21 30 34 30 10 0 26 7 34 15 8 8 21 12 29 9 8 -4 15 -2 15 4 0 6
-6 12 -12 14 -21 7 74 34 129 37 45 2 52 0 58 -20 6 -17 2 -27 -13 -39 -18
-15 -18 -18 -5 -44 13 -25 19 -28 51 -22 21 3 49 6 65 6 15 0 27 5 27 10 0 6
-18 10 -40 10 -51 0 -53 18 -2 22 l37 3 -40 23 c-22 13 -32 21 -22 18 10 -3
30 -6 43 -6 17 0 24 -6 24 -20 0 -22 16 -25 56 -9 21 7 34 7 52 -2 20 -11 23
-20 20 -58 l-2 -45 57 -3 c31 -1 74 -7 95 -12 20 -6 53 -11 72 -11 28 0 38 6
52 30 14 24 24 30 52 30 22 0 38 6 44 16 5 9 24 19 43 23 19 4 33 13 32 19 -1
6 11 13 27 17 29 6 52 25 30 25 -6 0 -8 5 -5 10 10 16 47 12 61 -7 11 -15 16
-16 31 -6 10 7 35 22 56 33 21 12 41 29 44 38 8 23 44 52 66 52 9 0 17 4 17 9
0 5 13 11 29 14 17 4 30 14 34 26 3 13 28 32 69 51 54 26 73 30 133 28 39 -1
79 3 90 9 11 6 22 8 25 5 3 -4 21 -13 40 -20z m-937 -329 c-13 -2 -33 -2 -45
0 -13 2 -3 4 22 4 25 0 35 -2 23 -4z m-763 -437 c0 -3 -4 -8 -10 -11 -5 -3
-10 -1 -10 4 0 6 5 11 10 11 6 0 10 -2 10 -4z m1051 -1156 c20 -11 28 -70 9
-70 -12 0 -14 -27 -2 -32 31 -14 80 -231 82 -359 0 -55 16 -107 41 -135 12
-13 19 -35 19 -62 0 -34 5 -45 29 -63 17 -12 35 -34 41 -50 7 -16 21 -29 33
-31 28 -4 57 -101 56 -188 0 -36 -1 -75 -1 -87 0 -15 -7 -23 -21 -25 -26 -4
-36 -38 -12 -38 20 0 12 -38 -12 -57 -22 -17 -97 -27 -141 -18 -20 4 -48 8
-62 7 -42 0 -119 -33 -125 -53 -4 -11 -25 -29 -47 -40 -39 -20 -41 -20 -84 -2
-48 20 -52 27 -27 55 16 18 15 20 -9 43 -15 13 -29 35 -33 47 -4 13 -15 42
-26 65 -24 55 -24 58 7 82 14 11 23 25 19 30 -8 13 8 43 39 74 14 14 27 42 31
68 4 24 11 52 17 62 5 11 5 17 -1 17 -7 0 -9 54 -7 152 2 83 -1 167 -6 187
-14 55 -17 80 -18 161 -2 129 -1 146 15 183 8 21 12 37 8 37 -4 0 8 11 27 25
38 26 124 34 161 15z m2345 -4717 c-3 -7 -12 -13 -21 -13 -17 0 -21 41 -5 70
6 11 12 34 14 52 7 59 10 54 13 -21 2 -41 2 -80 -1 -88z m7368 -7803 c12 -120
9 -137 -20 -108 -11 11 -15 36 -16 91 0 141 24 153 36 17z m63 -342 c-3 -8 -6
-5 -6 6 -1 11 2 17 5 13 3 -3 4 -12 1 -19z m103 -340 c0 -33 -18 -19 -22 18
-4 32 -3 34 9 18 7 -10 13 -26 13 -36z m700 -138 c0 -23 -4 -24 -31 -10 -27
15 -24 30 6 30 18 0 25 -5 25 -20z"/>
<path d="M9367 17055 c-9 -8 -20 -15 -26 -15 -6 0 -11 -4 -11 -10 0 -5 7 -10
15 -10 8 0 15 5 15 10 0 6 9 10 20 10 21 0 27 14 11 25 -5 3 -16 -2 -24 -10z"/>
<path d="M7990 16800 c-9 -6 -10 -10 -3 -10 6 0 15 5 18 10 8 12 4 12 -15 0z"/>
<path d="M6676 19095 c-3 -9 1 -18 10 -22 19 -7 39 11 30 26 -10 16 -33 13
-40 -4z"/>
<path d="M17840 3865 c0 -16 16 -20 24 -6 3 5 -1 11 -9 15 -9 3 -15 0 -15 -9z"/>
<path d="M17942 3653 c-7 -2 -16 -12 -21 -21 -7 -14 -3 -17 23 -19 17 -1 38 2
46 7 13 9 12 12 -4 25 -21 16 -24 16 -44 8z"/>
<path d="M18030 3589 c0 -5 5 -7 10 -4 6 3 10 8 10 11 0 2 -4 4 -10 4 -5 0
-10 -5 -10 -11z"/>
<path d="M18080 3370 c0 -5 5 -10 11 -10 5 0 7 5 4 10 -3 6 -8 10 -11 10 -2 0
-4 -4 -4 -10z"/>
<path d="M18179 3294 c-3 -20 -5 -30 -13 -47 -10 -22 9 -71 24 -62 11 7 8 100
-4 112 -3 3 -7 2 -7 -3z"/>
<path d="M18266 3139 c-8 -12 -12 -27 -9 -35 3 -7 -2 -21 -11 -29 -22 -23 -20
-71 5 -96 11 -11 22 -19 24 -17 8 8 33 172 28 184 -7 20 -20 17 -37 -7z"/>
</g>
</svg>
